<svg width="1440" height="1024" viewBox="0 0 1440 1024" fill="none" xmlns="http://www.w3.org/2000/svg">
<rect width="1440" height="1024" fill="#F1FFFF"/>
<rect x="314.5" y="541.5" width="606" height="99" fill="white" stroke="black"/>
<rect x="510.5" y="870.5" width="419" height="74" rx="37" fill="white" stroke="black"/>
<rect x="267.5" y="491.5" width="606" height="99" fill="white" stroke="black"/>
<rect x="104.05" y="29.05" width="1231.9" height="104.9" rx="52.45" fill="white" stroke="black" stroke-width="0.1"/>
<path d="M1302.88 82.95C1302.95 82.325 1303 81.675 1303 81C1303 80.325 1302.95 79.675 1302.85 79.05L1307.08 75.75C1307.45 75.45 1307.55 74.9 1307.33 74.475L1303.33 67.55C1303.08 67.1 1302.55 66.95 1302.1 67.1L1297.13 69.1C1296.08 68.3 1294.98 67.65 1293.75 67.15L1293 61.85C1292.93 61.35 1292.5 61 1292 61H1284C1283.5 61 1283.1 61.35 1283.03 61.85L1282.28 67.15C1281.05 67.65 1279.93 68.325 1278.9 69.1L1273.93 67.1C1273.48 66.925 1272.95 67.1 1272.7 67.55L1268.7 74.475C1268.45 74.925 1268.55 75.45 1268.95 75.75L1273.18 79.05C1273.08 79.675 1273 80.35 1273 81C1273 81.65 1273.05 82.325 1273.15 82.95L1268.93 86.25C1268.55 86.55 1268.45 87.1 1268.68 87.525L1272.68 94.45C1272.93 94.9 1273.45 95.05 1273.9 94.9L1278.88 92.9C1279.93 93.7 1281.03 94.35 1282.25 94.85L1283 100.15C1283.1 100.65 1283.5 101 1284 101H1292C1292.5 101 1292.93 100.65 1292.98 100.15L1293.73 94.85C1294.95 94.35 1296.08 93.675 1297.1 92.9L1302.08 94.9C1302.53 95.075 1303.05 94.9 1303.3 94.45L1307.3 87.525C1307.55 87.075 1307.45 86.55 1307.05 86.25L1302.88 82.95V82.95ZM1288 88.5C1283.88 88.5 1280.5 85.125 1280.5 81C1280.5 76.875 1283.88 73.5 1288 73.5C1292.13 73.5 1295.5 76.875 1295.5 81C1295.5 85.125 1292.13 88.5 1288 88.5Z" fill="black"/>
<path d="M314 521C302.96 521 294 529.96 294 541C294 552.04 302.96 561 314 561C325.04 561 334 552.04 334 541C334 529.96 325.04 521 314 521ZM310 551L300 541L302.82 538.18L310 545.34L325.18 530.16L328 533L310 551Z" fill="black"/>
<path d="M865 917C865 917.917 865.675 918.667 866.5 918.667H868V924.5C868 925.883 869.005 927 870.25 927C871.495 927 872.5 925.883 872.5 924.5V918.667H875.5V924.5C875.5 925.883 876.505 927 877.75 927C878.995 927 880 925.883 880 924.5V918.667H881.5C882.325 918.667 883 917.917 883 917V900.333H865V917ZM861.25 900.333C860.005 900.333 859 901.45 859 902.833V914.5C859 915.883 860.005 917 861.25 917C862.495 917 863.5 915.883 863.5 914.5V902.833C863.5 901.45 862.495 900.333 861.25 900.333ZM886.75 900.333C885.505 900.333 884.5 901.45 884.5 902.833V914.5C884.5 915.883 885.505 917 886.75 917C887.995 917 889 915.883 889 914.5V902.833C889 901.45 887.995 900.333 886.75 900.333ZM879.295 890.6L881.245 888.433C881.545 888.1 881.545 887.583 881.245 887.25C880.945 886.917 880.48 886.917 880.18 887.25L877.96 889.717C876.775 889.05 875.425 888.667 874 888.667C872.56 888.667 871.21 889.05 870.01 889.717L867.775 887.25C867.475 886.917 867.01 886.917 866.71 887.25C866.41 887.583 866.41 888.1 866.71 888.433L868.675 890.617C866.455 892.433 865 895.35 865 898.667H883C883 895.35 881.545 892.417 879.295 890.6V890.6ZM871 895.333H869.5V893.667H871V895.333ZM878.5 895.333H877V893.667H878.5V895.333Z" fill="black"/>
<line x1="829.5" y1="868.993" x2="830.5" y2="943.993" stroke="black"/>
<path d="M569.82 894.09C572.1 894.09 574.07 894.52 575.73 895.38C577.41 896.22 578.69 897.43 579.57 899.01C580.47 900.59 580.92 902.45 580.92 904.59C580.92 906.73 580.47 908.59 579.57 910.17C578.69 911.73 577.41 912.93 575.73 913.77C574.07 914.59 572.1 915 569.82 915H563.31V894.09H569.82ZM569.82 912.75C572.52 912.75 574.58 912.04 576 910.62C577.42 909.18 578.13 907.17 578.13 904.59C578.13 901.99 577.41 899.96 575.97 898.5C574.55 897.04 572.5 896.31 569.82 896.31H566.04V912.75H569.82ZM591.691 915.27C590.151 915.27 588.751 914.92 587.491 914.22C586.251 913.52 585.271 912.53 584.551 911.25C583.851 909.95 583.501 908.45 583.501 906.75C583.501 905.07 583.861 903.59 584.581 902.31C585.321 901.01 586.321 900.02 587.581 899.34C588.841 898.64 590.251 898.29 591.811 898.29C593.371 898.29 594.781 898.64 596.041 899.34C597.301 900.02 598.291 901 599.011 902.28C599.751 903.56 600.121 905.05 600.121 906.75C600.121 908.45 599.741 909.95 598.981 911.25C598.241 912.53 597.231 913.52 595.951 914.22C594.671 914.92 593.251 915.27 591.691 915.27ZM591.691 912.87C592.671 912.87 593.591 912.64 594.451 912.18C595.311 911.72 596.001 911.03 596.521 910.11C597.061 909.19 597.331 908.07 597.331 906.75C597.331 905.43 597.071 904.31 596.551 903.39C596.031 902.47 595.351 901.79 594.511 901.35C593.671 900.89 592.761 900.66 591.781 900.66C590.781 900.66 589.861 900.89 589.021 901.35C588.201 901.79 587.541 902.47 587.041 903.39C586.541 904.31 586.291 905.43 586.291 906.75C586.291 908.09 586.531 909.22 587.011 910.14C587.511 911.06 588.171 911.75 588.991 912.21C589.811 912.65 590.711 912.87 591.691 912.87ZM625.61 898.56L620.48 915H617.66L613.7 901.95L609.74 915H606.92L601.76 898.56H604.55L608.33 912.36L612.41 898.56H615.2L619.19 912.39L622.91 898.56H625.61ZM636.33 898.26C638.33 898.26 639.95 898.87 641.19 900.09C642.43 901.29 643.05 903.03 643.05 905.31V915H640.35V905.7C640.35 904.06 639.94 902.81 639.12 901.95C638.3 901.07 637.18 900.63 635.76 900.63C634.32 900.63 633.17 901.08 632.31 901.98C631.47 902.88 631.05 904.19 631.05 905.91V915H628.32V898.56H631.05V900.9C631.59 900.06 632.32 899.41 633.24 898.95C634.18 898.49 635.21 898.26 636.33 898.26ZM650.239 892.8V915H647.509V892.8H650.239ZM662.062 915.27C660.522 915.27 659.122 914.92 657.862 914.22C656.622 913.52 655.642 912.53 654.922 911.25C654.222 909.95 653.872 908.45 653.872 906.75C653.872 905.07 654.232 903.59 654.952 902.31C655.692 901.01 656.692 900.02 657.952 899.34C659.212 898.64 660.622 898.29 662.182 898.29C663.742 898.29 665.152 898.64 666.412 899.34C667.672 900.02 668.662 901 669.382 902.28C670.122 903.56 670.492 905.05 670.492 906.75C670.492 908.45 670.112 909.95 669.352 911.25C668.612 912.53 667.602 913.52 666.322 914.22C665.042 914.92 663.622 915.27 662.062 915.27ZM662.062 912.87C663.042 912.87 663.962 912.64 664.822 912.18C665.682 911.72 666.372 911.03 666.892 910.11C667.432 909.19 667.702 908.07 667.702 906.75C667.702 905.43 667.442 904.31 666.922 903.39C666.402 902.47 665.722 901.79 664.882 901.35C664.042 900.89 663.132 900.66 662.152 900.66C661.152 900.66 660.232 900.89 659.392 901.35C658.572 901.79 657.912 902.47 657.412 903.39C656.912 904.31 656.662 905.43 656.662 906.75C656.662 908.09 656.902 909.22 657.382 910.14C657.882 911.06 658.542 911.75 659.362 912.21C660.182 912.65 661.082 912.87 662.062 912.87ZM673.061 906.72C673.061 905.04 673.401 903.57 674.081 902.31C674.761 901.03 675.691 900.04 676.871 899.34C678.071 898.64 679.401 898.29 680.861 898.29C682.301 898.29 683.551 898.6 684.611 899.22C685.671 899.84 686.461 900.62 686.981 901.56V898.56H689.741V915H686.981V911.94C686.441 912.9 685.631 913.7 684.551 914.34C683.491 914.96 682.251 915.27 680.831 915.27C679.371 915.27 678.051 914.91 676.871 914.19C675.691 913.47 674.761 912.46 674.081 911.16C673.401 909.86 673.061 908.38 673.061 906.72ZM686.981 906.75C686.981 905.51 686.731 904.43 686.231 903.51C685.731 902.59 685.051 901.89 684.191 901.41C683.351 900.91 682.421 900.66 681.401 900.66C680.381 900.66 679.451 900.9 678.611 901.38C677.771 901.86 677.101 902.56 676.601 903.48C676.101 904.4 675.851 905.48 675.851 906.72C675.851 907.98 676.101 909.08 676.601 910.02C677.101 910.94 677.771 911.65 678.611 912.15C679.451 912.63 680.381 912.87 681.401 912.87C682.421 912.87 683.351 912.63 684.191 912.15C685.051 911.65 685.731 910.94 686.231 910.02C686.731 909.08 686.981 907.99 686.981 906.75ZM693.335 906.72C693.335 905.04 693.675 903.57 694.355 902.31C695.035 901.03 695.965 900.04 697.145 899.34C698.345 898.64 699.685 898.29 701.165 898.29C702.445 898.29 703.635 898.59 704.735 899.19C705.835 899.77 706.675 900.54 707.255 901.5V892.8H710.015V915H707.255V911.91C706.715 912.89 705.915 913.7 704.855 914.34C703.795 914.96 702.555 915.27 701.135 915.27C699.675 915.27 698.345 914.91 697.145 914.19C695.965 913.47 695.035 912.46 694.355 911.16C693.675 909.86 693.335 908.38 693.335 906.72ZM707.255 906.75C707.255 905.51 707.005 904.43 706.505 903.51C706.005 902.59 705.325 901.89 704.465 901.41C703.625 900.91 702.695 900.66 701.675 900.66C700.655 900.66 699.725 900.9 698.885 901.38C698.045 901.86 697.375 902.56 696.875 903.48C696.375 904.4 696.125 905.48 696.125 906.72C696.125 907.98 696.375 909.08 696.875 910.02C697.375 910.94 698.045 911.65 698.885 912.15C699.725 912.63 700.655 912.87 701.675 912.87C702.695 912.87 703.625 912.63 704.465 912.15C705.325 911.65 706.005 910.94 706.505 910.02C707.005 909.08 707.255 907.99 707.255 906.75ZM739.066 915H736.336L725.356 898.35V915H722.626V894.06H725.356L736.336 910.68V894.06H739.066V915ZM750.89 915.27C749.35 915.27 747.95 914.92 746.69 914.22C745.45 913.52 744.47 912.53 743.75 911.25C743.05 909.95 742.7 908.45 742.7 906.75C742.7 905.07 743.06 903.59 743.78 902.31C744.52 901.01 745.52 900.02 746.78 899.34C748.04 898.64 749.45 898.29 751.01 898.29C752.57 898.29 753.98 898.64 755.24 899.34C756.5 900.02 757.49 901 758.21 902.28C758.95 903.56 759.32 905.05 759.32 906.75C759.32 908.45 758.94 909.95 758.18 911.25C757.44 912.53 756.43 913.52 755.15 914.22C753.87 914.92 752.45 915.27 750.89 915.27ZM750.89 912.87C751.87 912.87 752.79 912.64 753.65 912.18C754.51 911.72 755.2 911.03 755.72 910.11C756.26 909.19 756.53 908.07 756.53 906.75C756.53 905.43 756.27 904.31 755.75 903.39C755.23 902.47 754.55 901.79 753.71 901.35C752.87 900.89 751.96 900.66 750.98 900.66C749.98 900.66 749.06 900.89 748.22 901.35C747.4 901.79 746.74 902.47 746.24 903.39C745.74 904.31 745.49 905.43 745.49 906.75C745.49 908.09 745.73 909.22 746.21 910.14C746.71 911.06 747.37 911.75 748.19 912.21C749.01 912.65 749.91 912.87 750.89 912.87ZM784.81 898.56L779.68 915H776.86L772.9 901.95L768.94 915H766.12L760.96 898.56H763.75L767.53 912.36L771.61 898.56H774.4L778.39 912.39L782.11 898.56H784.81Z" fill="black"/>
</svg>
